<svg width="78" height="26" viewBox="0 0 78 26" fill="none" xmlns="http://www.w3.org/2000/svg">
<path d="M0.328125 24.0781C0.671875 23.0573 0.875 22.3802 0.9375 22.0469C1.01042 21.7552 1.10417 21.1042 1.21875 20.0938H2C2.27083 21 2.57812 21.6302 2.92188 21.9844C3.81771 22.9531 4.92188 23.4375 6.23438 23.4375C7.51562 23.4375 8.48438 23.0833 9.14062 22.375C9.74479 21.7292 10.0469 20.9896 10.0469 20.1562C10.0469 19.2604 9.63542 18.4896 8.8125 17.8438C8.30208 17.4375 7.35938 16.8802 5.98438 16.1719C4.54688 15.4323 3.60417 14.9062 3.15625 14.5938C2.14583 13.875 1.44271 13.0573 1.04688 12.1406C0.692708 11.3385 0.515625 10.4115 0.515625 9.35938C0.515625 7.14062 1.27083 5.41667 2.78125 4.1875C4.14583 3.07292 5.82292 2.51562 7.8125 2.51562C9.73958 2.51562 11.4375 2.99479 12.9062 3.95312C12.4896 4.98438 12.151 6.0625 11.8906 7.1875H11.3125C11.0104 6.41667 10.6875 5.86979 10.3438 5.54688C9.65625 4.88021 8.74479 4.54688 7.60938 4.54688C6.61979 4.54688 5.81771 4.83854 5.20312 5.42188C4.63021 5.96354 4.34375 6.64062 4.34375 7.45312C4.34375 8.36979 4.72396 9.15104 5.48438 9.79688C6.02604 10.2552 7.03125 10.849 8.5 11.5781C10.0833 12.349 11.1719 12.9792 11.7656 13.4688C13.1719 14.6458 13.875 16.2292 13.875 18.2188C13.875 19.7188 13.4531 21.0781 12.6094 22.2969C11.8802 23.349 10.9323 24.1406 9.76562 24.6719C8.59896 25.2031 7.30208 25.4688 5.875 25.4688C3.95833 25.4688 2.10938 25.0052 0.328125 24.0781ZM17.0625 11.2969C17.9896 10.6094 18.7708 10.1354 19.4062 9.875C20.375 9.48958 21.4896 9.29688 22.75 9.29688C24.7812 9.29688 26.3333 9.83333 27.4062 10.9062C28 11.5 28.3802 12.1562 28.5469 12.875C28.6719 13.4062 28.7344 14.0833 28.7344 14.9062C28.7344 15.7188 28.7292 16.776 28.7188 18.0781C28.6979 19.6406 28.6875 20.6927 28.6875 21.2344C28.6875 22.5156 28.8229 23.3021 29.0938 23.5938C29.3021 23.8229 29.7292 23.9479 30.375 23.9688V24.7344C29.3542 25.1719 28.3854 25.3906 27.4688 25.3906C26.6146 25.3906 25.9219 25.1042 25.3906 24.5312C25.151 24.2708 24.9115 23.8385 24.6719 23.2344C24.0885 23.9635 23.5625 24.474 23.0938 24.7656C22.3229 25.2344 21.4271 25.4688 20.4062 25.4688C19.0417 25.4688 17.901 25.0938 16.9844 24.3438C16.0052 23.5521 15.5156 22.4271 15.5156 20.9688C15.5156 19.2292 16.3021 17.9844 17.875 17.2344C18.5833 16.8906 20.026 16.4323 22.2031 15.8594C23.1302 15.6094 23.7708 15.3542 24.125 15.0938C24.375 14.9167 24.5 14.6406 24.5 14.2656C24.5 13.4948 24.2031 12.8333 23.6094 12.2812C23.0052 11.7083 22.2292 11.4219 21.2812 11.4219C20.5208 11.4219 19.75 11.5885 18.9688 11.9219C18.5729 12.099 18.0573 12.4323 17.4219 12.9219L17.0625 11.2969ZM24.5156 16.625C23.276 16.9479 22.4271 17.2188 21.9688 17.4375C21.1875 17.8229 20.6667 18.3594 20.4062 19.0469C20.2292 19.5156 20.1406 20.0417 20.1406 20.625C20.1406 21.5417 20.3281 22.2448 20.7031 22.7344C21.0156 23.1406 21.4531 23.3438 22.0156 23.3438C22.5885 23.3438 23.1042 23.1302 23.5625 22.7031C24.0104 22.2656 24.2969 21.6406 24.4219 20.8281C24.4844 20.4427 24.5156 19.7865 24.5156 18.8594V16.625ZM31.6875 11.7031C31.7396 11.2135 31.7656 10.8438 31.7656 10.5938C31.7656 10.3542 31.7396 9.98958 31.6875 9.5C32.4375 9.66667 33.1458 9.75 33.8125 9.75C33.9792 8.38542 34.2031 7.29167 34.4844 6.46875C35.0573 4.79167 35.8073 3.46354 36.7344 2.48438C37.7448 1.42188 38.9062 0.890625 40.2188 0.890625C40.5104 0.890625 40.8438 0.9375 41.2188 1.03125C41.1042 2.32292 41.0156 3.63021 40.9531 4.95312L40.5938 5.14062C39.6979 4.64062 38.9271 4.39062 38.2812 4.39062C37.8229 4.39062 37.4479 4.49479 37.1562 4.70312C36.7708 4.96354 36.5781 5.3125 36.5781 5.75C36.5781 6.3125 37.0573 7.64583 38.0156 9.75C38.3802 9.77083 38.6771 9.78125 38.9062 9.78125C39.375 9.78125 40.125 9.6875 41.1562 9.5C41.1042 9.98958 41.0781 10.3542 41.0781 10.5938C41.0781 10.8438 41.1042 11.2135 41.1562 11.7031C40.1667 11.5052 39.4323 11.4062 38.9531 11.4062C38.7344 11.4062 38.4219 11.4219 38.0156 11.4531C38.0052 12.6823 38 13.5938 38 14.1875L38.0312 18.4688C38.0521 21.2083 38.125 23.4115 38.25 25.0781C37.2188 25.026 36.4427 25 35.9219 25C35.401 25 34.625 25.026 33.5938 25.0781C33.7604 22.9219 33.8438 20.1094 33.8438 16.6406C33.8438 16.0677 33.8333 14.3385 33.8125 11.4531C33.5938 11.4427 33.4375 11.4375 33.3438 11.4375C32.9062 11.4375 32.3542 11.526 31.6875 11.7031ZM43.2031 25.0781C43.3802 23.3385 43.4688 20.6979 43.4688 17.1562C43.4688 14.3438 43.3802 11.849 43.2031 9.67188C44.2448 9.72396 45.0208 9.75 45.5312 9.75C46.0521 9.75 46.8333 9.72396 47.875 9.67188C47.7083 11.6823 47.625 14.099 47.625 16.9219C47.625 20.5885 47.7083 23.3073 47.875 25.0781C46.8333 25.026 46.0573 25 45.5469 25C45.026 25 44.2448 25.026 43.2031 25.0781ZM45.5938 1.35938C46.3125 1.35938 46.9167 1.63021 47.4062 2.17188C47.8333 2.64062 48.0469 3.1875 48.0469 3.8125C48.0469 4.54167 47.776 5.15625 47.2344 5.65625C46.7656 6.07292 46.2135 6.28125 45.5781 6.28125C44.8594 6.28125 44.2552 6.01042 43.7656 5.46875C43.3385 5 43.125 4.4375 43.125 3.78125C43.125 3.09375 43.3958 2.5 43.9375 2C44.4062 1.57292 44.9583 1.35938 45.5938 1.35938ZM52.0156 25.0781C52.1823 23.6302 52.2656 21.0208 52.2656 17.25C52.2656 14.9271 52.1823 12.401 52.0156 9.67188C53.0156 9.72396 53.7656 9.75 54.2656 9.75C54.7656 9.75 55.5156 9.72396 56.5156 9.67188C56.3698 10.8594 56.2917 12.0521 56.2812 13.25C56.8125 12.0833 57.3646 11.2135 57.9375 10.6406C58.8021 9.78646 59.7604 9.35938 60.8125 9.35938C61.0625 9.35938 61.375 9.375 61.75 9.40625C61.5833 10.8438 61.5 11.8854 61.5 12.5312C61.5 12.8854 61.5104 13.3073 61.5312 13.7969L61.2031 13.9688C60.5573 13.5729 59.9479 13.375 59.375 13.375C58.1354 13.375 57.2656 13.9427 56.7656 15.0781C56.5365 15.6198 56.4219 17 56.4219 19.2188C56.4219 21.2812 56.5052 23.2344 56.6719 25.0781C55.6406 25.026 54.875 25 54.375 25C53.8438 25 53.0573 25.026 52.0156 25.0781ZM76.0469 24.2344C75.2865 24.6094 74.6615 24.875 74.1719 25.0312C73.2656 25.3125 72.2552 25.4531 71.1406 25.4531C68.776 25.4531 66.9062 24.8177 65.5312 23.5469C63.9167 22.0677 63.1094 19.9635 63.1094 17.2344C63.1094 14.6927 63.8594 12.6927 65.3594 11.2344C66.6823 9.94271 68.4219 9.29688 70.5781 9.29688C72.8073 9.29688 74.5208 9.96354 75.7188 11.2969C76.8229 12.5156 77.375 14.026 77.375 15.8281C77.375 16.2656 77.3594 16.7604 77.3281 17.3125C76.3802 17.3021 74.7344 17.2865 72.3906 17.2656H70.5312C69.7917 17.2656 68.8594 17.2812 67.7344 17.3125C67.8177 18.8021 68.0625 19.9844 68.4688 20.8594C68.8333 21.6615 69.3802 22.2865 70.1094 22.7344C70.7865 23.151 71.5573 23.3594 72.4219 23.3594C73.6615 23.3594 74.9896 22.875 76.4062 21.9062L76.8281 22.2188C76.5365 22.8958 76.276 23.5677 76.0469 24.2344ZM72.75 15.7812C72.75 15.5521 72.75 15.3177 72.75 15.0781C72.75 13.4115 72.4167 12.1771 71.75 11.375C71.4167 10.9688 70.9635 10.7656 70.3906 10.7656C69.526 10.7656 68.8385 11.2812 68.3281 12.3125C67.9323 13.1146 67.7344 14.2708 67.7344 15.7812C69.276 15.8021 70.3333 15.8125 70.9062 15.8125C71.4896 15.8125 72.1042 15.8021 72.75 15.7812Z" fill="#6E5DCD"/>
</svg>
